<svg _ngcontent-ysr-c0="" enable-background="new 0 0 512.033 512.033" viewBox="0 0 512.033 512.033" width="35" xmlns="http://www.w3.org/2000/svg">
    <path _ngcontent-ysr-c0="" d="m489.17 412.107c8.22-18.37 12.83-38.67 12.83-60.09 0-82.71-67.29-150-150-150-17.85 0-34.99 3.14-50.89 8.89l-90.22 90.22c-5.75 15.9-8.89 33.04-8.89 50.89 0 82.71 67.29 150 150 150h150l-.53-.63c-20.78-24.94-25.55-59.64-12.3-89.28z" fill="#bfdbff"></path>
    <path _ngcontent-ysr-c0="" d="m310 160.017c0 82.364-66.956 150-150 150h-150l.53-.63c20.78-24.94 25.55-59.64 12.3-89.28-8.22-18.37-12.83-38.67-12.83-60.09 0-82.71 67.29-150 150-150s150 67.29 150 150z" fill="#ecf2f3"></path>
    <path _ngcontent-ysr-c0="" d="m190 160.017h60v60h-60z" fill="#ffcd69"></path>
    <path _ngcontent-ysr-c0="" d="m190 220.017h-60c0-6.925 0-143.1 0-150h60z" fill="#ff7b79"></path>
    <path _ngcontent-ysr-c0="" d="m70 130.017h60v90h-60z" fill="#bfdbff"></path>
    <circle _ngcontent-ysr-c0="" cx="412" cy="352.017" r="10"></circle>
    <circle _ngcontent-ysr-c0="" cx="352" cy="352.017" r="10"></circle>
    <circle _ngcontent-ysr-c0="" cx="292" cy="352.017" r="10"></circle>
    <path _ngcontent-ysr-c0="" d="m190 60.017h-60c-5.522 0-10 4.477-10 10v50h-50c-5.522 0-10 4.477-10 10v90c0 5.523 4.478 10 10 10h180c5.522 0 10-4.477 10-10v-60c0-5.523-4.478-10-10-10h-50v-80c0-5.523-4.477-10-10-10zm-110 80h40v70h-40zm60-60h40v130h-40zm100 90v40h-40v-40z"></path>
    <circle _ngcontent-ysr-c0="" cx="160" cy="10.017" r="10"></circle>
    <path _ngcontent-ysr-c0="" d="m2.88 302.946-.53.63c-2.505 2.976-3.057 7.133-1.416 10.659s5.177 5.781 9.066 5.781h150c12.255 0 24.343-1.388 36.122-4.119-2.733 11.791-4.122 23.877-4.122 36.119 0 88.224 71.775 160 160 160h150c3.89 0 7.426-2.255 9.066-5.781 2.975-6.395-1.863-11.139-1.914-11.25-18.217-21.865-22.478-52.795-10.854-78.794 9.092-20.319 13.702-41.911 13.702-64.174 0-88.224-71.775-160-160-160-12.241 0-24.327 1.389-36.119 4.122 2.731-11.781 4.119-23.868 4.119-36.122 0-71.892-47.581-132.597-112.531-152.812-5.273-1.64-10.879 1.303-12.52 6.577-1.642 5.273 1.303 10.878 6.576 12.52 58.901 18.332 98.475 72.068 98.475 133.715 0 77.366-62.743 140-140 140h-131.165c13.728-25.654 15.221-56.932 3.123-83.995-7.934-17.732-11.958-36.576-11.958-56.005 0-61.647 39.574-115.383 98.475-133.715 5.273-1.642 8.218-7.247 6.576-12.52-1.641-5.273-7.246-8.214-12.52-6.577-64.849 20.184-112.531 80.815-112.531 152.812 0 22.264 4.61 43.855 13.701 64.171 11.624 26.002 7.364 56.933-10.821 78.758zm305.91-84.096c13.924-4.531 28.437-6.833 43.21-6.833 77.196 0 140 62.804 140 140 0 19.43-4.023 38.273-11.959 56.009-12.094 27.052-10.604 58.32 3.13 83.991h-131.171c-77.196 0-140-62.804-140-140 0-14.775 2.302-29.288 6.833-43.212 41.227-16.32 73.639-48.733 89.957-89.955z"></path>
</svg>